<svg width="21" height="20" viewBox="0 0 21 20" fill="none" xmlns="http://www.w3.org/2000/svg">
<path d="M19.2266 10.2C19.2266 9.46 19.1653 8.92 19.0327 8.36001H10.4102V11.7H15.4714C15.3694 12.53 14.8184 13.78 13.5939 14.62L13.5767 14.7318L16.303 16.8015L16.4919 16.82C18.2265 15.25 19.2266 12.94 19.2266 10.2Z" fill="#3843FF"/>
<path d="M10.4102 19C12.8898 19 14.9714 18.2 16.4919 16.82L13.5939 14.62C12.8184 15.15 11.7776 15.52 10.4102 15.52C7.98168 15.52 5.92047 13.95 5.18571 11.78L5.07801 11.789L2.2432 13.939L2.20613 14.04C3.71632 16.9799 6.81837 19 10.4102 19Z" fill="#3BA935"/>
<path d="M5.18571 11.78C4.99183 11.22 4.87963 10.62 4.87963 10C4.87963 9.37996 4.99183 8.77998 5.17551 8.21999L5.17037 8.10073L2.30004 5.91619L2.20613 5.95996C1.58371 7.17998 1.22656 8.55 1.22656 10C1.22656 11.45 1.58371 12.82 2.20613 14.04L5.18571 11.78Z" fill="#FEA800"/>
<path d="M10.4102 4.47998C12.1347 4.47998 13.2979 5.20997 13.9612 5.82001L16.5531 3.34C14.9613 1.89 12.8898 1 10.4102 1C6.81837 1 3.71632 3.01998 2.20613 5.95996L5.17551 8.21999C5.92047 6.05 7.98168 4.47998 10.4102 4.47998Z" fill="#E3524F"/>
</svg>
